<svg width="16" height="18" viewBox="0 0 16 18" fill="none" xmlns="http://www.w3.org/2000/svg">
<path d="M13.8333 10.3217V7.33335C13.8333 4.65252 12.0125 2.39419 9.54583 1.71502C9.30167 1.10002 8.705 0.666687 8 0.666687C7.295 0.666687 6.69833 1.10002 6.45417 1.71502C3.9875 2.39502 2.16667 4.65252 2.16667 7.33335V10.3217L0.744167 11.7442C0.5875 11.9 0.5 12.1117 0.5 12.3334V14C0.5 14.4609 0.8725 14.8334 1.33333 14.8334H14.6667C15.1275 14.8334 15.5 14.4609 15.5 14V12.3334C15.5 12.1117 15.4125 11.9 15.2558 11.7442L13.8333 10.3217ZM13.8333 13.1667H2.16667V12.6784L3.58917 11.2559C3.74583 11.1 3.83333 10.8884 3.83333 10.6667V7.33335C3.83333 5.03585 5.7025 3.16669 8 3.16669C10.2975 3.16669 12.1667 5.03585 12.1667 7.33335V10.6667C12.1667 10.8884 12.2542 11.1 12.4108 11.2559L13.8333 12.6784V13.1667ZM8 17.3334C9.0925 17.3334 10.0058 16.6384 10.3483 15.6667H5.65167C5.99417 16.6384 6.9075 17.3334 8 17.3334Z" fill="#9397AD"/>
</svg>
